The.Jeff.Dunham.Show.S01.E06.HDTV.XviD-RNR.JoeBonanno
   General
      Format : AVI
      Format/Info : Audio Video Interleave
      File size : 180 MiB
      Duration : 21mn 4s
      Overall bit rate : 1 197 Kbps
      Writing application : VirtualDubMod 1.5.10.2 (build 2542/release)
      Writing library : VirtualDubMod build 2542/release
   Video
      Format : MPEG-4 Visual
      Format profile : Streaming Video@L1
      Format settings, BVOP : Yes
      Format settings, QPel : No
      Format settings, GMC : No warppoints
      Format settings, Matrix : Default
      Muxing mode : Packed bitstream
      Codec ID : XVID
      Codec ID/Hint : XviD
      Duration : 21mn 4s
      Bit rate : 1 070 Kbps
      Width : 624 pixels
      Height : 352 pixels
      Display aspect ratio : 16/9
      Frame rate : 25.000 fps
      Resolution : 24 bits
      Colorimetry : 4:2:0
      Scan type : Progressive
      Bits/(Pixel*Frame) : 0.195
      Stream size : 161 MiB (89%)
      Writing library : XviD 50
   Audio
      Format : MPEG Audio
      Format version : Version 1
      Format profile : Layer 3
      Codec ID : 55
      Codec ID/Hint : MP3
      Duration : 21mn 4s
      Bit rate mode : Variable
      Bit rate : 114 Kbps
      Minimum bit rate : 128 Kbps
      Channel(s) : 2 channels
      Sampling rate : 48.0 KHz
      Resolution : 16 bits
      Stream size : 17.2 MiB (10%)
      Alignment : Aligned on interleaves
      Interleave, duration : 24 ms (0.60 video frame)
      Interleave, preload duration : 498 ms
      Writing library : LAME3.98r
      Encoding settings : ABR